<?xml version="1.0" encoding="UTF-8" standalone="no"?><!DOCTYPE svg PUBLIC "-//W3C//DTD SVG 1.1//EN" "http://www.w3.org/Graphics/SVG/1.1/DTD/svg11.dtd"><svg width="100%" height="100%" viewBox="0 0 512 512" version="1.1" xmlns="http://www.w3.org/2000/svg" xmlns:xlink="http://www.w3.org/1999/xlink" xml:space="preserve" xmlns:serif="http://www.serif.com/" style="fill-rule:evenodd;clip-rule:evenodd;stroke-linejoin:round;stroke-miterlimit:2;"><path d="M305,256c0,27.063 -21.938,49 -49,49c-27.063,0 -49,-21.938 -49,-49c0,-27.063 21.938,-49 49,-49c27.063,0 49,21.938 49,49Z" style="fill:#016ca4;fill-rule:nonzero;"/><path d="M370.594,169.305c-2.356,-6.383 -6.114,-12.16 -10.996,-16.903c-4.743,-4.882 -10.516,-8.64 -16.903,-10.996c-5.179,-2.011 -12.961,-4.406 -27.293,-5.058c-15.504,-0.707 -20.152,-0.86 -59.402,-0.86c-39.254,0 -43.902,0.149 -59.402,0.856c-14.332,0.656 -22.118,3.051 -27.293,5.062c-6.387,2.356 -12.164,6.114 -16.903,10.996c-4.882,4.743 -8.64,10.516 -11,16.903c-2.011,5.179 -4.406,12.965 -5.058,27.297c-0.707,15.5 -0.86,20.148 -0.86,59.402c0,39.25 0.153,43.898 0.86,59.402c0.652,14.332 3.047,22.114 5.058,27.293c2.36,6.387 6.114,12.16 10.996,16.903c4.743,4.882 10.516,8.64 16.903,10.996c5.179,2.015 12.965,4.41 27.297,5.062c15.5,0.707 20.144,0.856 59.398,0.856c39.258,0 43.906,-0.149 59.402,-0.856c14.332,-0.652 22.118,-3.047 27.297,-5.062c12.821,-4.946 22.953,-15.078 27.899,-27.899c2.011,-5.179 4.406,-12.961 5.062,-27.293c0.707,-15.504 0.856,-20.152 0.856,-59.402c0,-39.254 -0.149,-43.902 -0.856,-59.402c-0.652,-14.332 -3.047,-22.118 -5.062,-27.297Zm-114.594,162.179c-41.691,0 -75.488,-33.793 -75.488,-75.484c0,-41.691 33.797,-75.484 75.488,-75.484c41.687,0 75.484,33.793 75.484,75.484c0,41.691 -33.797,75.484 -75.484,75.484Zm78.469,-136.312c-9.742,0 -17.641,-7.899 -17.641,-17.641c0,-9.742 7.899,-17.64 17.641,-17.64c9.742,0 17.64,7.898 17.64,17.64c-0.004,9.742 -7.898,17.641 -17.64,17.641Z" style="fill:#016ca4;fill-rule:nonzero;"/><path d="M256,0c-141.363,0 -256,114.637 -256,256c0,141.363 114.637,256 256,256c141.363,0 256,-114.637 256,-256c0,-141.363 -114.637,-256 -256,-256Zm146.113,316.605c-0.711,15.649 -3.199,26.332 -6.832,35.684c-7.636,19.746 -23.246,35.356 -42.992,42.992c-9.348,3.633 -20.035,6.117 -35.68,6.832c-15.675,0.715 -20.683,0.887 -60.605,0.887c-39.926,0 -44.93,-0.172 -60.609,-0.887c-15.645,-0.715 -26.332,-3.199 -35.68,-6.832c-9.813,-3.691 -18.695,-9.476 -26.039,-16.957c-7.477,-7.34 -13.262,-16.226 -16.953,-26.035c-3.633,-9.348 -6.121,-20.035 -6.832,-35.68c-0.723,-15.679 -0.891,-20.687 -0.891,-60.609c0,-39.922 0.168,-44.93 0.887,-60.605c0.711,-15.649 3.195,-26.332 6.828,-35.684c3.691,-9.809 9.48,-18.695 16.961,-26.035c7.34,-7.481 16.226,-13.266 26.035,-16.957c9.352,-3.633 20.035,-6.117 35.684,-6.832c15.675,-0.715 20.683,-0.887 60.605,-0.887c39.922,0 44.93,0.172 60.605,0.891c15.649,0.711 26.333,3.195 35.684,6.824c9.809,3.691 18.695,9.48 26.039,16.961c7.477,7.344 13.266,16.226 16.953,26.035c3.637,9.352 6.121,20.035 6.836,35.684c0.715,15.675 0.883,20.683 0.883,60.605c0,39.922 -0.168,44.93 -0.887,60.605Z" style="fill:#016ca4;fill-rule:nonzero;"/></svg>