<?xml version="1.0" encoding="UTF-8" standalone="no"?><!DOCTYPE svg PUBLIC "-//W3C//DTD SVG 1.1//EN" "http://www.w3.org/Graphics/SVG/1.1/DTD/svg11.dtd"><svg width="100%" height="100%" viewBox="0 0 254 254" version="1.1" xmlns="http://www.w3.org/2000/svg" xmlns:xlink="http://www.w3.org/1999/xlink" xml:space="preserve" xmlns:serif="http://www.serif.com/" style="fill-rule:evenodd;clip-rule:evenodd;stroke-linejoin:round;stroke-miterlimit:2;"><circle cx="126.836" cy="126.836" r="126.836" style="fill:#ebebeb;"/><clipPath id="_clip1"><circle cx="126.836" cy="126.836" r="126.836"/></clipPath><g clip-path="url(#_clip1)"><g><path d="M62.836,252.627l-121.379,0c-3.656,0 -6.621,-2.965 -6.621,-6.621l0,-238.345c0,-3.656 2.965,-6.621 6.621,-6.621l121.379,0l0,251.587Z" style="fill:#73af00;fill-rule:nonzero;"/><rect x="62.838" y="1.044" width="128.003" height="251.588" style="fill:#f5f5f5;"/><path d="M312.215,252.627l-121.379,0l0,-251.586l121.379,0c3.656,0 6.621,2.964 6.621,6.621l0,238.344c0,3.657 -2.965,6.621 -6.621,6.621Z" style="fill:#ff4b55;fill-rule:nonzero;"/><path d="M138.255,132.756l-11.419,5.71l0,5.71l5.71,0l5.709,-11.42Z" style="fill:#ffd250;fill-rule:nonzero;"/><g><path d="M126.836,158.449c-1.578,0 -2.855,-1.277 -2.855,-2.855l0,-11.419c0,-1.578 1.277,-2.855 2.855,-2.855c1.578,0 2.855,1.277 2.855,2.855l0,11.419c0,1.578 -1.277,2.855 -2.855,2.855Z" style="fill:#00c3a0;fill-rule:nonzero;"/><path d="M126.836,147.03c-11.213,0 -22.041,-4.326 -30.491,-12.183c-1.154,-1.073 -1.221,-2.88 -0.148,-4.033c1.081,-1.151 2.886,-1.213 4.033,-0.149c7.391,6.873 16.839,10.656 26.605,10.656c9.766,0 19.214,-3.783 26.605,-10.656c1.151,-1.067 2.955,-1.008 4.033,0.149c1.074,1.154 1.007,2.961 -0.148,4.033c-8.448,7.857 -19.276,12.183 -30.489,12.183Z" style="fill:#00c3a0;fill-rule:nonzero;"/></g><path d="M126.836,158.449c-7.319,0 -14.408,-2.138 -20.502,-6.186l3.161,-4.756c10.304,6.846 24.377,6.846 34.681,0l3.161,4.756c-6.094,4.049 -13.183,6.186 -20.501,6.186Z" style="fill:#00aadc;fill-rule:nonzero;"/><path d="M122.316,119.909l-6.304,9.755l-1.071,3.211l16.415,-3.806l-9.04,-9.16Z" style="fill:#732d37;fill-rule:nonzero;"/><path d="M109.364,136.013c-7.547,0 -16.605,-6.351 -19.008,-20.502l5.632,-0.953c1.996,11.767 9.235,15.753 13.582,15.743c1.333,-0.037 2.723,-0.497 2.833,-1.439c0.128,-1.126 0.159,-1.393 -2.827,-2.403c-1.623,-0.549 -3.463,-1.17 -4.753,-2.648c-5.223,-5.963 1.848,-12.274 5.244,-15.307c0.6,-0.536 0.848,-0.99 0.784,-1.163c-0.187,-0.488 -1.307,-1.226 -2.57,-1.226c-3.627,0 -6.379,-2.049 -7.178,-5.345c-0.831,-3.412 0.738,-7.008 3.727,-8.553l2.621,5.074c-0.7,0.362 -0.978,1.394 -0.8,2.13c0.07,0.296 0.24,0.984 1.631,0.984c3.496,0 6.822,2.063 7.904,4.901c0.463,1.21 1.159,4.355 -2.314,7.458c-3.75,3.348 -5.994,5.868 -4.75,7.287c0.281,0.321 1.488,0.731 2.286,0.999c2.57,0.87 7.354,2.487 6.669,8.466c-0.43,3.761 -3.786,6.37 -8.347,6.494c-0.123,0 -0.246,0.003 -0.366,0.003Z" style="fill:#aad264;fill-rule:nonzero;"/><path d="M132.546,104.208c0,0 5.709,-11.418 -5.71,-17.128c0,0 39.967,-5.71 34.257,45.676l-0.002,-0.002c-3.747,-2.998 -9.311,-8.476 -11.298,-12.844l-17.247,-9.993l0,-5.709Z" style="fill:#874150;fill-rule:nonzero;"/><path d="M126.836,115.627l28.547,17.129l-11.419,5.709l-17.128,-17.127l0,-5.711Z" style="fill:#732d37;fill-rule:nonzero;"/><path d="M115.417,98.499c3.153,0 5.71,2.556 5.71,5.709l-0.006,0.006c-3.407,3.407 -4.25,8.61 -2.096,12.918l1.29,2.581c0.537,1.076 1.245,2.058 2.096,2.909l15.845,15.845l0,-7.891c0,-9.83 -2.288,-19.525 -6.685,-28.318c-2.901,-5.802 -8.832,-9.468 -15.32,-9.468l-0.833,0l0,5.71l-0.001,0l0,-0.001Z" style="fill:#783c46;fill-rule:nonzero;"/><path d="M115.417,92.789l-5.71,5.71l0,5.709c0,0 6.792,-3.443 9.081,-4.54c1.6,-0.767 1.309,-2.579 0.391,-3.453c-0.715,-0.68 -3.762,-3.426 -3.762,-3.426Z" style="fill:#ffd250;fill-rule:nonzero;"/><path d="M126.836,169.868c-26.761,0 -48.531,-21.77 -48.531,-48.531l5.71,0c0,23.614 19.208,42.822 42.822,42.822c23.613,0 42.822,-19.208 42.822,-42.822l5.709,0c-0.001,26.761 -21.771,48.531 -48.532,48.531Z" style="fill:#aad264;fill-rule:nonzero;"/><g><circle cx="84.326" cy="138.279" r="3.874" style="fill:#ffe15a;"/><circle cx="92.891" cy="151.959" r="3.875" style="fill:#ffe15a;"/><circle cx="106.803" cy="162.302" r="3.874" style="fill:#ffe15a;"/><circle cx="169.758" cy="138.279" r="3.875" style="fill:#ffe15a;"/><circle cx="161.186" cy="151.959" r="3.874" style="fill:#ffe15a;"/><circle cx="147.273" cy="162.302" r="3.875" style="fill:#ffe15a;"/></g><path d="M129.691,161.304l-5.71,0c-3.153,0 -5.709,-2.557 -5.709,-5.71c0,-3.153 2.556,-5.71 5.709,-5.71l5.71,0c3.153,0 5.71,2.557 5.71,5.71c0,3.154 -2.557,5.71 -5.71,5.71Z" style="fill:#ffb478;fill-rule:nonzero;"/><path d="M149.793,119.909c1.904,5.59 5.948,10.705 11.298,12.844l0.002,0.003c5.71,-51.385 -34.257,-45.676 -34.257,-45.676c28.547,0 22.957,32.829 22.957,32.829Z" style="fill:#9b4b5a;fill-rule:nonzero;"/></g></g></svg>